<?xml version="1.0" standalone="no"?>
<!DOCTYPE svg PUBLIC "-//W3C//DTD SVG 20010904//EN"
 "http://www.w3.org/TR/2001/REC-SVG-20010904/DTD/svg10.dtd">
<svg version="1.0" xmlns="http://www.w3.org/2000/svg"
 width="390.000000pt" height="390.000000pt" viewBox="0 0 390.000000 390.000000"
 preserveAspectRatio="xMidYMid meet">
<metadata>
Created by potrace 1.15, written by Peter Selinger 2001-2017
</metadata>
<g transform="translate(0.000000,390.000000) scale(0.100000,-0.100000)"
fill="#000000" stroke="none">
<path d="M1742 3150 c-13 -6 -27 -8 -31 -6 -3 2 -15 -2 -26 -10 -10 -8 -14
-14 -9 -14 6 0 16 6 24 13 12 10 12 9 1 -5 -7 -10 -19 -18 -26 -18 -7 0 -18
-7 -26 -16 -10 -13 -10 -17 2 -25 12 -7 11 -9 -2 -9 -9 0 -20 -7 -23 -16 -3
-9 -6 -184 -6 -390 l0 -374 -377 0 c-208 0 -383 -4 -390 -8 -6 -4 170 -7 390
-7 l402 1 -395 -6 c-347 -4 -399 -7 -425 -22 -16 -9 -41 -22 -54 -28 -15 -7
-21 -16 -17 -26 3 -8 2 -12 -4 -9 -21 13 -30 -53 -30 -225 0 -172 9 -238 30
-225 5 3 7 0 4 -9 -5 -14 3 -20 76 -58 19 -10 124 -14 420 -18 l395 -6 -402 1
c-220 0 -396 -3 -390 -7 7 -4 182 -8 390 -8 l377 0 0 -374 c0 -206 3 -381 6
-390 3 -9 14 -16 23 -16 13 0 14 -2 2 -9 -12 -8 -12 -12 -2 -25 8 -9 19 -16
26 -16 7 0 19 -8 26 -17 11 -15 11 -16 -1 -6 -8 7 -19 13 -25 13 -16 -1 27
-23 55 -29 33 -7 407 -7 440 0 28 6 71 28 55 29 -6 0 -17 -6 -25 -12 -12 -11
-12 -10 -1 5 7 9 19 17 26 17 7 0 18 7 26 16 10 13 10 17 -2 25 -12 7 -11 9 2
9 9 0 20 7 23 16 3 9 6 184 6 390 l0 374 378 0 c207 0 382 4 389 8 6 4 -170 7
-390 7 l-402 -1 395 6 c347 4 399 7 425 22 17 9 41 22 54 28 15 7 21 16 17 26
-3 8 -2 12 4 9 21 -13 30 53 30 225 0 172 -9 238 -30 225 -5 -3 -7 0 -4 9 5
14 -3 20 -76 58 -19 10 -124 14 -420 18 l-395 6 402 -1 c220 0 396 3 390 7 -7
4 -182 8 -389 8 l-378 0 0 374 c0 206 -3 381 -6 390 -3 9 -14 16 -23 16 -13 0
-14 2 -2 9 12 8 12 12 2 25 -8 9 -19 16 -26 16 -7 0 -19 8 -26 18 -11 14 -11
15 1 5 8 -7 19 -13 24 -13 15 1 -25 23 -49 28 -45 9 -411 11 -433 2z"/>
</g>
</svg>
