<?xml version="1.0" standalone="no"?>
<!DOCTYPE svg PUBLIC "-//W3C//DTD SVG 20010904//EN"
 "http://www.w3.org/TR/2001/REC-SVG-20010904/DTD/svg10.dtd">
<svg version="1.0" xmlns="http://www.w3.org/2000/svg"
 width="390.000000pt" height="390.000000pt" viewBox="0 0 390.000000 390.000000"
 preserveAspectRatio="xMidYMid meet">
<metadata>
Created by potrace 1.15, written by Peter Selinger 2001-2017
</metadata>
<g transform="translate(0.000000,390.000000) scale(0.100000,-0.100000)"
fill="#000000" stroke="none">
<path d="M521 2262 c-19 -9 -44 -30 -55 -45 -20 -27 -21 -42 -21 -237 0 -195
1 -210 21 -237 11 -15 36 -36 55 -45 32 -17 119 -18 1399 -18 1280 0 1367 1
1400 18 19 9 45 32 57 51 22 32 23 43 23 231 0 188 -1 199 -23 231 -12 19 -38
42 -57 51 -33 17 -120 18 -1400 18 -1280 0 -1367 -1 -1399 -18z"/>
</g>
</svg>
